<mxfile host="app.diagrams.net" modified="2023-04-29T13:34:54.457Z" agent="Mozilla/5.0 (Windows NT 10.0; Win64; x64; rv:109.0) Gecko/20100101 Firefox/112.0" etag="t9vPqHI6sWc4rW7GXIl3" version="21.2.1" type="github">
  <diagram name="Page-1" id="e3a06f82-3646-2815-327d-82caf3d4e204">
    <mxGraphModel dx="860" dy="442" grid="1" gridSize="10" guides="1" tooltips="1" connect="1" arrows="1" fold="1" page="1" pageScale="1.5" pageWidth="1169" pageHeight="826" background="none" math="0" shadow="0">
      <root>
        <mxCell id="0" style=";html=1;" />
        <mxCell id="1" style=";html=1;" parent="0" />
        <mxCell id="qHxnZsuGqMzURwHlTCag-1" value="&lt;font style=&quot;font-size: 20px;&quot;&gt;4ième Étage &lt;/font&gt;" style="whiteSpace=wrap;html=1;fillColor=#f8cecc;fontSize=14;strokeColor=none;verticalAlign=top;" vertex="1" parent="1">
          <mxGeometry x="145.5" y="230" width="990" height="1010" as="geometry" />
        </mxCell>
        <mxCell id="qHxnZsuGqMzURwHlTCag-2" value="&lt;div style=&quot;font-size: 20px;&quot;&gt;&lt;font style=&quot;font-size: 20px;&quot;&gt;1er Étage &lt;br&gt;&lt;/font&gt;&lt;/div&gt;" style="whiteSpace=wrap;html=1;fillColor=#FFD470;gradientColor=none;fontSize=14;strokeColor=none;verticalAlign=top;" vertex="1" parent="1">
          <mxGeometry x="1210" y="700" width="324.5" height="420" as="geometry" />
        </mxCell>
        <mxCell id="qHxnZsuGqMzURwHlTCag-3" value="&lt;div style=&quot;font-size: 20px;&quot;&gt;&lt;font style=&quot;font-size: 20px;&quot;&gt;34 postes fixes&lt;/font&gt;&lt;/div&gt;&lt;div style=&quot;font-size: 20px;&quot;&gt;&lt;br&gt;&lt;/div&gt;&lt;div style=&quot;font-size: 20px;&quot;&gt;&lt;font style=&quot;font-size: 20px;&quot;&gt;&lt;br&gt;&lt;/font&gt;&lt;/div&gt;" style="verticalLabelPosition=bottom;aspect=fixed;html=1;verticalAlign=top;strokeColor=none;shape=mxgraph.citrix.desktop;fillColor=#66B2FF;gradientColor=#0066CC;fontSize=14;" vertex="1" parent="1">
          <mxGeometry x="1430" y="892" width="89" height="98" as="geometry" />
        </mxCell>
        <mxCell id="qHxnZsuGqMzURwHlTCag-4" value="&lt;font style=&quot;font-size: 20px;&quot;&gt;Routeur 1&lt;br&gt;&lt;/font&gt;" style="verticalLabelPosition=bottom;aspect=fixed;html=1;verticalAlign=top;strokeColor=none;shape=mxgraph.citrix.router;fillColor=#66B2FF;gradientColor=#0066CC;fontSize=14;" vertex="1" parent="1">
          <mxGeometry x="725" y="610" width="55" height="36.5" as="geometry" />
        </mxCell>
        <mxCell id="qHxnZsuGqMzURwHlTCag-5" value="" style="verticalLabelPosition=top;aspect=fixed;html=1;verticalAlign=bottom;strokeColor=none;shape=mxgraph.citrix.cache_server;fillColor=#66B2FF;gradientColor=#0066CC;fontSize=14;labelPosition=center;align=center;" vertex="1" parent="1">
          <mxGeometry x="500" y="251.5" width="71" height="97.5" as="geometry" />
        </mxCell>
        <mxCell id="qHxnZsuGqMzURwHlTCag-6" style="edgeStyle=none;rounded=0;html=1;startSize=10;endSize=10;jettySize=auto;orthogonalLoop=1;fontSize=14;endArrow=none;endFill=0;strokeWidth=2;exitX=0.16;exitY=0.55;exitDx=0;exitDy=0;exitPerimeter=0;" edge="1" parent="1" source="qHxnZsuGqMzURwHlTCag-40" target="qHxnZsuGqMzURwHlTCag-9">
          <mxGeometry relative="1" as="geometry">
            <mxPoint x="760" y="940" as="sourcePoint" />
          </mxGeometry>
        </mxCell>
        <mxCell id="qHxnZsuGqMzURwHlTCag-7" style="edgeStyle=none;rounded=0;html=1;startSize=10;endSize=10;jettySize=auto;orthogonalLoop=1;fontSize=14;endArrow=none;endFill=0;strokeWidth=2;entryX=0.482;entryY=0.621;entryDx=0;entryDy=0;entryPerimeter=0;exitX=0.759;exitY=0.922;exitDx=0;exitDy=0;exitPerimeter=0;" edge="1" parent="1" source="qHxnZsuGqMzURwHlTCag-56" target="qHxnZsuGqMzURwHlTCag-18">
          <mxGeometry relative="1" as="geometry">
            <mxPoint x="1359" y="433.899855907781" as="targetPoint" />
            <mxPoint x="880" y="1150" as="sourcePoint" />
          </mxGeometry>
        </mxCell>
        <mxCell id="qHxnZsuGqMzURwHlTCag-8" style="edgeStyle=none;rounded=0;html=1;startSize=10;endSize=10;jettySize=auto;orthogonalLoop=1;fontSize=14;endArrow=none;endFill=0;strokeWidth=2;entryX=0.451;entryY=0.21;entryDx=0;entryDy=0;entryPerimeter=0;" edge="1" parent="1" source="qHxnZsuGqMzURwHlTCag-57" target="qHxnZsuGqMzURwHlTCag-12">
          <mxGeometry relative="1" as="geometry">
            <mxPoint x="1437" y="532.8295228628231" as="targetPoint" />
            <mxPoint x="642.23" y="180" as="sourcePoint" />
          </mxGeometry>
        </mxCell>
        <mxCell id="qHxnZsuGqMzURwHlTCag-9" value="" style="verticalLabelPosition=top;aspect=fixed;html=1;verticalAlign=bottom;strokeColor=none;shape=mxgraph.citrix.thin_client;fillColor=#66B2FF;gradientColor=#0066CC;fontSize=14;labelPosition=center;align=center;" vertex="1" parent="1">
          <mxGeometry x="229" y="799" width="71" height="71" as="geometry" />
        </mxCell>
        <mxCell id="qHxnZsuGqMzURwHlTCag-10" style="edgeStyle=none;rounded=0;html=1;startSize=10;endSize=10;jettySize=auto;orthogonalLoop=1;fontSize=14;endArrow=none;endFill=0;strokeWidth=2;" edge="1" parent="1" source="qHxnZsuGqMzURwHlTCag-57" target="qHxnZsuGqMzURwHlTCag-33">
          <mxGeometry relative="1" as="geometry">
            <mxPoint x="756.95" y="235" as="sourcePoint" />
            <mxPoint x="752" y="330" as="targetPoint" />
          </mxGeometry>
        </mxCell>
        <mxCell id="qHxnZsuGqMzURwHlTCag-11" value="" style="verticalLabelPosition=bottom;aspect=fixed;html=1;verticalAlign=top;strokeColor=none;shape=mxgraph.citrix.web_service;fillColor=#66B2FF;gradientColor=#0066CC;fontSize=14;rotation=0;" vertex="1" parent="1">
          <mxGeometry x="715.5" y="60" width="84" height="80" as="geometry" />
        </mxCell>
        <mxCell id="qHxnZsuGqMzURwHlTCag-12" value="" style="verticalLabelPosition=top;aspect=fixed;html=1;verticalAlign=bottom;strokeColor=none;shape=mxgraph.citrix.cache_server;fillColor=#66B2FF;gradientColor=#0066CC;fontSize=14;labelPosition=center;align=center;" vertex="1" parent="1">
          <mxGeometry x="300" y="251.5" width="71" height="97.5" as="geometry" />
        </mxCell>
        <mxCell id="qHxnZsuGqMzURwHlTCag-13" value="" style="verticalLabelPosition=top;aspect=fixed;html=1;verticalAlign=bottom;strokeColor=none;shape=mxgraph.citrix.cache_server;fillColor=#66B2FF;gradientColor=#0066CC;fontSize=14;labelPosition=center;align=center;" vertex="1" parent="1">
          <mxGeometry x="852.5" y="251.5" width="71" height="97.5" as="geometry" />
        </mxCell>
        <mxCell id="qHxnZsuGqMzURwHlTCag-14" value="" style="verticalLabelPosition=top;aspect=fixed;html=1;verticalAlign=bottom;strokeColor=none;shape=mxgraph.citrix.cache_server;fillColor=#66B2FF;gradientColor=#0066CC;fontSize=14;labelPosition=center;align=center;" vertex="1" parent="1">
          <mxGeometry x="1030" y="251.5" width="71" height="97.5" as="geometry" />
        </mxCell>
        <mxCell id="qHxnZsuGqMzURwHlTCag-15" style="edgeStyle=none;rounded=0;html=1;startSize=10;endSize=10;jettySize=auto;orthogonalLoop=1;fontSize=14;endArrow=none;endFill=0;strokeWidth=2;entryX=0.225;entryY=0.174;entryDx=0;entryDy=0;entryPerimeter=0;" edge="1" parent="1" source="qHxnZsuGqMzURwHlTCag-57" target="qHxnZsuGqMzURwHlTCag-5">
          <mxGeometry relative="1" as="geometry">
            <mxPoint x="656.5699999999999" y="217" as="sourcePoint" />
            <mxPoint x="1217" y="711" as="targetPoint" />
          </mxGeometry>
        </mxCell>
        <mxCell id="qHxnZsuGqMzURwHlTCag-16" style="edgeStyle=none;rounded=0;html=1;startSize=10;endSize=10;jettySize=auto;orthogonalLoop=1;fontSize=14;endArrow=none;endFill=0;strokeWidth=2;entryX=0.31;entryY=0.19;entryDx=0;entryDy=0;entryPerimeter=0;" edge="1" parent="1" source="qHxnZsuGqMzURwHlTCag-57" target="qHxnZsuGqMzURwHlTCag-13">
          <mxGeometry relative="1" as="geometry">
            <mxPoint x="799.0139999999999" y="230.39999999999998" as="sourcePoint" />
            <mxPoint x="1227" y="721" as="targetPoint" />
          </mxGeometry>
        </mxCell>
        <mxCell id="qHxnZsuGqMzURwHlTCag-17" style="edgeStyle=none;rounded=0;html=1;startSize=10;endSize=10;jettySize=auto;orthogonalLoop=1;fontSize=14;endArrow=none;endFill=0;strokeWidth=2;" edge="1" parent="1" source="qHxnZsuGqMzURwHlTCag-57" target="qHxnZsuGqMzURwHlTCag-14">
          <mxGeometry relative="1" as="geometry">
            <mxPoint x="854.94" y="210" as="sourcePoint" />
            <mxPoint x="1237" y="731" as="targetPoint" />
          </mxGeometry>
        </mxCell>
        <mxCell id="qHxnZsuGqMzURwHlTCag-18" value="&lt;div style=&quot;font-size: 20px;&quot;&gt;&lt;font style=&quot;font-size: 20px;&quot;&gt;16 postes portables&lt;/font&gt;&lt;/div&gt;&lt;div style=&quot;font-size: 20px;&quot;&gt;&lt;font style=&quot;font-size: 20px;&quot;&gt;172.16.2.33/27&lt;/font&gt;&lt;/div&gt;&lt;div style=&quot;font-size: 20px;&quot;&gt;&lt;font style=&quot;font-size: 20px;&quot;&gt;à 172.16.2.48/27&lt;br&gt;&lt;/font&gt;&lt;/div&gt;" style="verticalLabelPosition=bottom;aspect=fixed;html=1;verticalAlign=top;strokeColor=none;shape=mxgraph.citrix.laptop_2;fillColor=#66B2FF;gradientColor=#0066CC;fontSize=14;" vertex="1" parent="1">
          <mxGeometry x="846.5" y="1070" width="116" height="86.5" as="geometry" />
        </mxCell>
        <mxCell id="qHxnZsuGqMzURwHlTCag-19" value="&lt;div style=&quot;font-size: 20px;&quot;&gt;&lt;font style=&quot;background-color: rgb(255, 212, 112); font-size: 20px;&quot;&gt;4 imprimantes&lt;/font&gt;&lt;/div&gt;" style="image;html=1;image=img/lib/clip_art/computers/Printer_128x128.png" vertex="1" parent="1">
          <mxGeometry x="1250" y="901" width="80" height="80" as="geometry" />
        </mxCell>
        <mxCell id="qHxnZsuGqMzURwHlTCag-20" value="&lt;div style=&quot;font-size: 20px;&quot;&gt;&lt;font style=&quot;background-color: rgb(248, 206, 204); font-size: 20px;&quot;&gt;3 imprimantes&lt;/font&gt;&lt;/div&gt;&lt;div style=&quot;font-size: 20px;&quot;&gt;&lt;font style=&quot;background-color: rgb(248, 206, 204); font-size: 20px;&quot;&gt;172.16.2.49/27&lt;/font&gt;&lt;/div&gt;&lt;div style=&quot;font-size: 20px;&quot;&gt;&lt;font style=&quot;background-color: rgb(248, 206, 204); font-size: 20px;&quot;&gt;à 172.16.2.51/27&lt;font style=&quot;font-size: 20px;&quot;&gt;&lt;br&gt;&lt;/font&gt;&lt;/font&gt;&lt;/div&gt;" style="image;html=1;image=img/lib/clip_art/computers/Printer_128x128.png" vertex="1" parent="1">
          <mxGeometry x="580" y="1070" width="80" height="80" as="geometry" />
        </mxCell>
        <mxCell id="qHxnZsuGqMzURwHlTCag-21" style="edgeStyle=none;rounded=0;html=1;startSize=10;endSize=10;jettySize=auto;orthogonalLoop=1;fontSize=14;endArrow=none;endFill=0;strokeWidth=2;" edge="1" parent="1" source="qHxnZsuGqMzURwHlTCag-56" target="qHxnZsuGqMzURwHlTCag-20">
          <mxGeometry relative="1" as="geometry">
            <mxPoint x="1330" y="720" as="sourcePoint" />
            <mxPoint x="1369" y="443.899855907781" as="targetPoint" />
          </mxGeometry>
        </mxCell>
        <mxCell id="qHxnZsuGqMzURwHlTCag-22" style="edgeStyle=none;rounded=0;html=1;startSize=10;endSize=10;jettySize=auto;orthogonalLoop=1;fontSize=14;endArrow=none;endFill=0;strokeWidth=2;entryX=0.51;entryY=0.967;entryDx=0;entryDy=0;entryPerimeter=0;" edge="1" parent="1" source="qHxnZsuGqMzURwHlTCag-55" target="qHxnZsuGqMzURwHlTCag-54">
          <mxGeometry relative="1" as="geometry">
            <mxPoint x="759" y="680" as="sourcePoint" />
            <mxPoint x="520" y="710" as="targetPoint" />
          </mxGeometry>
        </mxCell>
        <mxCell id="qHxnZsuGqMzURwHlTCag-23" style="edgeStyle=none;rounded=0;html=1;startSize=10;endSize=10;jettySize=auto;orthogonalLoop=1;fontSize=14;endArrow=none;endFill=0;strokeWidth=2;" edge="1" parent="1" source="qHxnZsuGqMzURwHlTCag-3" target="qHxnZsuGqMzURwHlTCag-58">
          <mxGeometry relative="1" as="geometry">
            <mxPoint x="310" y="484.5" as="sourcePoint" />
            <mxPoint x="1403.6306165555588" y="823.4667679007148" as="targetPoint" />
          </mxGeometry>
        </mxCell>
        <mxCell id="qHxnZsuGqMzURwHlTCag-25" style="edgeStyle=none;rounded=0;html=1;startSize=10;endSize=10;jettySize=auto;orthogonalLoop=1;fontSize=14;endArrow=none;endFill=0;strokeWidth=2;exitX=0.475;exitY=0.71;exitDx=0;exitDy=0;exitPerimeter=0;" edge="1" parent="1" source="qHxnZsuGqMzURwHlTCag-11" target="qHxnZsuGqMzURwHlTCag-57">
          <mxGeometry relative="1" as="geometry">
            <mxPoint x="751" y="80" as="sourcePoint" />
            <mxPoint x="761.969" y="160" as="targetPoint" />
          </mxGeometry>
        </mxCell>
        <mxCell id="qHxnZsuGqMzURwHlTCag-26" value="" style="image;html=1;image=img/lib/clip_art/networking/Firewall-page1_128x128.png" vertex="1" parent="1">
          <mxGeometry x="705" y="305" width="80" height="80" as="geometry" />
        </mxCell>
        <mxCell id="qHxnZsuGqMzURwHlTCag-27" style="edgeStyle=none;rounded=0;html=1;startSize=10;endSize=10;jettySize=auto;orthogonalLoop=1;fontSize=14;endArrow=none;endFill=0;strokeWidth=2;" edge="1" parent="1" source="qHxnZsuGqMzURwHlTCag-54">
          <mxGeometry relative="1" as="geometry">
            <mxPoint x="756" y="410" as="sourcePoint" />
            <mxPoint x="756" y="540" as="targetPoint" />
          </mxGeometry>
        </mxCell>
        <mxCell id="qHxnZsuGqMzURwHlTCag-28" value="&lt;div style=&quot;font-size: 20px;&quot;&gt;&lt;font style=&quot;font-size: 20px;&quot;&gt;Internet&lt;/font&gt;&lt;/div&gt;&lt;div style=&quot;font-size: 20px;&quot;&gt;&lt;font style=&quot;font-size: 20px;&quot;&gt;195.220.249.30/27&lt;font style=&quot;font-size: 20px;&quot;&gt;&lt;br&gt;&lt;/font&gt;&lt;/font&gt;&lt;/div&gt;" style="text;html=1;align=center;verticalAlign=middle;resizable=0;points=[];autosize=1;strokeColor=none;fillColor=none;" vertex="1" parent="1">
          <mxGeometry x="660.5" y="10" width="190" height="60" as="geometry" />
        </mxCell>
        <mxCell id="qHxnZsuGqMzURwHlTCag-29" value="&lt;div style=&quot;font-size: 20px;&quot;&gt;&lt;font style=&quot;font-size: 20px;&quot;&gt;Serveur Web externe&lt;/font&gt;&lt;/div&gt;&lt;div style=&quot;font-size: 20px;&quot;&gt;&lt;font style=&quot;font-size: 20px;&quot;&gt;195.220.249.1/27&lt;/font&gt;&lt;/div&gt;" style="text;html=1;align=center;verticalAlign=middle;resizable=0;points=[];autosize=1;strokeColor=none;fillColor=none;" vertex="1" parent="1">
          <mxGeometry x="230.5" y="357.75" width="210" height="60" as="geometry" />
        </mxCell>
        <mxCell id="qHxnZsuGqMzURwHlTCag-30" value="&lt;div style=&quot;font-size: 20px;&quot;&gt;&lt;font style=&quot;font-size: 20px;&quot;&gt;Serveur Web interne&lt;/font&gt;&lt;/div&gt;&lt;div style=&quot;font-size: 20px;&quot;&gt;&lt;font style=&quot;font-size: 20px;&quot;&gt;195.220.249.4/27&lt;font style=&quot;font-size: 20px;&quot;&gt;&lt;br&gt;&lt;/font&gt;&lt;/font&gt;&lt;/div&gt;" style="text;html=1;align=center;verticalAlign=middle;resizable=0;points=[];autosize=1;strokeColor=none;fillColor=none;" vertex="1" parent="1">
          <mxGeometry x="436" y="344" width="210" height="60" as="geometry" />
        </mxCell>
        <mxCell id="qHxnZsuGqMzURwHlTCag-31" value="&lt;div style=&quot;font-size: 20px;&quot;&gt;&lt;font style=&quot;font-size: 20px;&quot;&gt;Serveur FTP&lt;/font&gt;&lt;/div&gt;&lt;div style=&quot;font-size: 20px;&quot;&gt;&lt;font style=&quot;font-size: 20px;&quot;&gt;195.220.249.2/27&lt;/font&gt;&lt;/div&gt;" style="text;html=1;align=center;verticalAlign=middle;resizable=0;points=[];autosize=1;strokeColor=none;fillColor=none;" vertex="1" parent="1">
          <mxGeometry x="802.5" y="344" width="180" height="60" as="geometry" />
        </mxCell>
        <mxCell id="qHxnZsuGqMzURwHlTCag-32" value="&lt;div style=&quot;font-size: 20px;&quot;&gt;&lt;font style=&quot;font-size: 20px;&quot;&gt;Serveur courrier &lt;br&gt;&lt;/font&gt;&lt;/div&gt;&lt;div style=&quot;font-size: 20px;&quot;&gt;&lt;font style=&quot;font-size: 20px;&quot;&gt;électronique&lt;/font&gt;&lt;/div&gt;&lt;div style=&quot;font-size: 20px;&quot;&gt;&lt;font style=&quot;font-size: 20px;&quot;&gt;195.220.249.3/27&lt;font style=&quot;font-size: 20px;&quot;&gt;&lt;br&gt;&lt;/font&gt;&lt;/font&gt;&lt;/div&gt;" style="text;html=1;align=center;verticalAlign=middle;resizable=0;points=[];autosize=1;strokeColor=none;fillColor=none;" vertex="1" parent="1">
          <mxGeometry x="975.5" y="339" width="180" height="90" as="geometry" />
        </mxCell>
        <mxCell id="qHxnZsuGqMzURwHlTCag-33" value="&lt;div style=&quot;font-size: 20px;&quot;&gt;&lt;font style=&quot;font-size: 20px;&quot;&gt;195.220.249.29/27&lt;/font&gt;&lt;/div&gt;&lt;div style=&quot;font-size: 20px;&quot;&gt;&lt;font style=&quot;font-size: 20px;&quot;&gt;Fire Wall&lt;font style=&quot;font-size: 20px;&quot;&gt;&lt;br&gt;&lt;/font&gt;&lt;/font&gt;&lt;/div&gt;" style="text;html=1;align=center;verticalAlign=middle;resizable=0;points=[];autosize=1;strokeColor=none;fillColor=none;" vertex="1" parent="1">
          <mxGeometry x="662.5" y="251.5" width="190" height="60" as="geometry" />
        </mxCell>
        <mxCell id="qHxnZsuGqMzURwHlTCag-34" value="&lt;font style=&quot;font-size: 20px;&quot;&gt;172.16.255.254/16&lt;/font&gt;" style="text;html=1;align=center;verticalAlign=middle;resizable=0;points=[];autosize=1;strokeColor=none;fillColor=none;" vertex="1" parent="1">
          <mxGeometry x="637.5" y="385" width="190" height="40" as="geometry" />
        </mxCell>
        <mxCell id="qHxnZsuGqMzURwHlTCag-36" value="&lt;font style=&quot;font-size: 20px;&quot;&gt;172.16.1.62/26&lt;/font&gt;" style="text;html=1;align=center;verticalAlign=middle;resizable=0;points=[];autosize=1;strokeColor=none;fillColor=none;" vertex="1" parent="1">
          <mxGeometry x="783.5" y="608.25" width="160" height="40" as="geometry" />
        </mxCell>
        <mxCell id="qHxnZsuGqMzURwHlTCag-37" style="edgeStyle=none;rounded=0;html=1;startSize=10;endSize=10;jettySize=auto;orthogonalLoop=1;fontSize=14;endArrow=none;endFill=0;strokeWidth=2;entryX=0.07;entryY=0.4;entryDx=0;entryDy=0;entryPerimeter=0;exitX=1.048;exitY=0.717;exitDx=0;exitDy=0;exitPerimeter=0;" edge="1" parent="1" source="qHxnZsuGqMzURwHlTCag-4">
          <mxGeometry relative="1" as="geometry">
            <mxPoint x="795.5" y="955" as="sourcePoint" />
            <mxPoint x="1276.8000000000002" y="776.25" as="targetPoint" />
          </mxGeometry>
        </mxCell>
        <mxCell id="qHxnZsuGqMzURwHlTCag-38" style="edgeStyle=none;rounded=0;html=1;startSize=10;endSize=10;jettySize=auto;orthogonalLoop=1;fontSize=14;endArrow=none;endFill=0;strokeWidth=2;exitX=0.5;exitY=0;exitDx=0;exitDy=0;" edge="1" parent="1" source="qHxnZsuGqMzURwHlTCag-19" target="qHxnZsuGqMzURwHlTCag-58">
          <mxGeometry relative="1" as="geometry">
            <mxPoint x="807.5" y="991" as="sourcePoint" />
            <mxPoint x="1319.7600000000002" y="811.45" as="targetPoint" />
          </mxGeometry>
        </mxCell>
        <mxCell id="qHxnZsuGqMzURwHlTCag-39" value="&lt;font style=&quot;font-size: 20px;&quot;&gt;172.16.2.0/27&lt;/font&gt;" style="ellipse;shape=cloud;whiteSpace=wrap;html=1;" vertex="1" parent="1">
          <mxGeometry x="662.5" y="730" width="190" height="60" as="geometry" />
        </mxCell>
        <mxCell id="qHxnZsuGqMzURwHlTCag-40" value="&lt;font style=&quot;font-size: 20px;&quot;&gt;172.16.1.128/26&lt;/font&gt;" style="ellipse;shape=cloud;whiteSpace=wrap;html=1;" vertex="1" parent="1">
          <mxGeometry x="380" y="680" width="200" height="80" as="geometry" />
        </mxCell>
        <mxCell id="qHxnZsuGqMzURwHlTCag-41" style="edgeStyle=none;rounded=0;html=1;startSize=10;endSize=10;jettySize=auto;orthogonalLoop=1;fontSize=14;endArrow=none;endFill=0;strokeWidth=2;entryX=-0.001;entryY=0.717;entryDx=0;entryDy=0;entryPerimeter=0;exitX=0.834;exitY=0.167;exitDx=0;exitDy=0;exitPerimeter=0;" edge="1" parent="1" source="qHxnZsuGqMzURwHlTCag-40" target="qHxnZsuGqMzURwHlTCag-4">
          <mxGeometry relative="1" as="geometry">
            <mxPoint x="500" y="730" as="sourcePoint" />
            <mxPoint x="751" y="762" as="targetPoint" />
          </mxGeometry>
        </mxCell>
        <mxCell id="qHxnZsuGqMzURwHlTCag-42" value="&lt;font style=&quot;font-size: 20px;&quot;&gt;172.16.1.254/26&lt;/font&gt;" style="text;html=1;align=center;verticalAlign=middle;resizable=0;points=[];autosize=1;strokeColor=none;fillColor=none;" vertex="1" parent="1">
          <mxGeometry x="562.5" y="611.5" width="170" height="40" as="geometry" />
        </mxCell>
        <mxCell id="qHxnZsuGqMzURwHlTCag-43" value="&lt;font style=&quot;font-size: 20px;&quot;&gt;172.16.2.30/27&lt;/font&gt;" style="text;html=1;align=center;verticalAlign=middle;resizable=0;points=[];autosize=1;strokeColor=none;fillColor=none;" vertex="1" parent="1">
          <mxGeometry x="675.5" y="665" width="160" height="40" as="geometry" />
        </mxCell>
        <mxCell id="qHxnZsuGqMzURwHlTCag-44" style="edgeStyle=none;rounded=0;html=1;startSize=10;endSize=10;jettySize=auto;orthogonalLoop=1;fontSize=14;endArrow=none;endFill=0;strokeWidth=2;entryX=0.499;entryY=1.045;entryDx=0;entryDy=0;entryPerimeter=0;" edge="1" parent="1" source="qHxnZsuGqMzURwHlTCag-39" target="qHxnZsuGqMzURwHlTCag-43">
          <mxGeometry relative="1" as="geometry">
            <mxPoint x="757" y="820" as="sourcePoint" />
            <mxPoint x="750" y="770" as="targetPoint" />
          </mxGeometry>
        </mxCell>
        <mxCell id="qHxnZsuGqMzURwHlTCag-45" value="&lt;div style=&quot;font-size: 20px;&quot;&gt;&lt;font style=&quot;background-color: rgb(248, 206, 204); font-size: 20px;&quot;&gt;3 imprimantes&lt;/font&gt;&lt;/div&gt;&lt;div style=&quot;font-size: 20px;&quot;&gt;&lt;font style=&quot;background-color: rgb(248, 206, 204); font-size: 20px;&quot;&gt;172.16.1.180/26&lt;/font&gt;&lt;/div&gt;&lt;div style=&quot;font-size: 20px;&quot;&gt;&lt;font style=&quot;background-color: rgb(248, 206, 204); font-size: 20px;&quot;&gt;à172.16.1.128&lt;font style=&quot;font-size: 20px;&quot;&gt;/26&lt;br&gt;&lt;/font&gt;&lt;/font&gt;&lt;/div&gt;" style="image;html=1;image=img/lib/clip_art/computers/Printer_128x128.png" vertex="1" parent="1">
          <mxGeometry x="560" y="790" width="80" height="80" as="geometry" />
        </mxCell>
        <mxCell id="qHxnZsuGqMzURwHlTCag-46" value="&lt;div style=&quot;font-size: 20px;&quot;&gt;&lt;font style=&quot;font-size: 20px;&quot;&gt;47 postes fixes&lt;/font&gt;&lt;/div&gt;&lt;div style=&quot;font-size: 20px;&quot;&gt;&lt;font style=&quot;font-size: 20px;&quot;&gt;172.16.1.129/26&lt;/font&gt;&lt;/div&gt;&lt;div style=&quot;font-size: 20px;&quot;&gt;&lt;font style=&quot;font-size: 20px;&quot;&gt;à 172.17.1.179/26&lt;br&gt;&lt;/font&gt;&lt;/div&gt;" style="text;html=1;align=center;verticalAlign=middle;resizable=0;points=[];autosize=1;strokeColor=none;fillColor=none;" vertex="1" parent="1">
          <mxGeometry x="174.5" y="860" width="180" height="90" as="geometry" />
        </mxCell>
        <mxCell id="qHxnZsuGqMzURwHlTCag-47" style="edgeStyle=none;rounded=0;html=1;startSize=10;endSize=10;jettySize=auto;orthogonalLoop=1;fontSize=14;endArrow=none;endFill=0;strokeWidth=2;exitX=0.716;exitY=0.932;exitDx=0;exitDy=0;exitPerimeter=0;entryX=0;entryY=0.25;entryDx=0;entryDy=0;" edge="1" parent="1" source="qHxnZsuGqMzURwHlTCag-40" target="qHxnZsuGqMzURwHlTCag-45">
          <mxGeometry relative="1" as="geometry">
            <mxPoint x="500" y="830" as="sourcePoint" />
            <mxPoint x="520" y="880" as="targetPoint" />
          </mxGeometry>
        </mxCell>
        <mxCell id="qHxnZsuGqMzURwHlTCag-48" value="" style="verticalLabelPosition=bottom;sketch=0;aspect=fixed;html=1;verticalAlign=top;strokeColor=none;align=center;outlineConnect=0;shape=mxgraph.citrix.router;" vertex="1" parent="1">
          <mxGeometry x="730" y="849.5" width="55" height="36.5" as="geometry" />
        </mxCell>
        <mxCell id="qHxnZsuGqMzURwHlTCag-49" value="&lt;font style=&quot;font-size: 20px;&quot;&gt;172.16.2.29/27&lt;/font&gt;" style="text;html=1;align=center;verticalAlign=middle;resizable=0;points=[];autosize=1;strokeColor=none;fillColor=none;" vertex="1" parent="1">
          <mxGeometry x="677.5" y="814.5" width="160" height="40" as="geometry" />
        </mxCell>
        <mxCell id="qHxnZsuGqMzURwHlTCag-50" style="edgeStyle=none;rounded=0;html=1;startSize=10;endSize=10;jettySize=auto;orthogonalLoop=1;fontSize=14;endArrow=none;endFill=0;strokeWidth=2;exitX=0.499;exitY=0.954;exitDx=0;exitDy=0;exitPerimeter=0;" edge="1" parent="1" source="qHxnZsuGqMzURwHlTCag-39" target="qHxnZsuGqMzURwHlTCag-49">
          <mxGeometry relative="1" as="geometry">
            <mxPoint x="767" y="845" as="sourcePoint" />
            <mxPoint x="765" y="811" as="targetPoint" />
          </mxGeometry>
        </mxCell>
        <mxCell id="qHxnZsuGqMzURwHlTCag-51" value="&lt;div style=&quot;font-size: 20px;&quot;&gt;&lt;font style=&quot;font-size: 20px;&quot;&gt;Routeur 2&lt;/font&gt;&lt;/div&gt;&lt;div style=&quot;font-size: 20px;&quot;&gt;&lt;font style=&quot;font-size: 20px;&quot;&gt;172.16.2.62/27&lt;/font&gt;&lt;/div&gt;" style="text;html=1;align=center;verticalAlign=middle;resizable=0;points=[];autosize=1;strokeColor=none;fillColor=none;" vertex="1" parent="1">
          <mxGeometry x="677.5" y="885" width="160" height="60" as="geometry" />
        </mxCell>
        <mxCell id="qHxnZsuGqMzURwHlTCag-52" style="edgeStyle=none;rounded=0;html=1;startSize=10;endSize=10;jettySize=auto;orthogonalLoop=1;fontSize=14;endArrow=none;endFill=0;strokeWidth=2;" edge="1" parent="1" source="qHxnZsuGqMzURwHlTCag-56" target="qHxnZsuGqMzURwHlTCag-51">
          <mxGeometry relative="1" as="geometry">
            <mxPoint x="752" y="1124" as="sourcePoint" />
            <mxPoint x="752" y="1030" as="targetPoint" />
          </mxGeometry>
        </mxCell>
        <mxCell id="qHxnZsuGqMzURwHlTCag-53" value="" style="edgeStyle=none;rounded=0;html=1;startSize=10;endSize=10;jettySize=auto;orthogonalLoop=1;fontSize=14;endArrow=none;endFill=0;strokeWidth=2;entryX=0.487;entryY=0.107;entryDx=0;entryDy=0;entryPerimeter=0;" edge="1" parent="1" target="qHxnZsuGqMzURwHlTCag-54">
          <mxGeometry relative="1" as="geometry">
            <mxPoint x="749" y="410" as="sourcePoint" />
            <mxPoint x="756" y="540" as="targetPoint" />
          </mxGeometry>
        </mxCell>
        <mxCell id="qHxnZsuGqMzURwHlTCag-54" value="&lt;font style=&quot;font-size: 21px;&quot;&gt;172.16.0.0/16&lt;/font&gt;" style="ellipse;shape=cloud;whiteSpace=wrap;html=1;" vertex="1" parent="1">
          <mxGeometry x="602.5" y="430" width="300" height="120" as="geometry" />
        </mxCell>
        <mxCell id="qHxnZsuGqMzURwHlTCag-55" value="&lt;font style=&quot;font-size: 20px;&quot;&gt;172.16.255.253/16&lt;/font&gt;" style="text;html=1;align=center;verticalAlign=middle;resizable=0;points=[];autosize=1;strokeColor=none;fillColor=none;" vertex="1" parent="1">
          <mxGeometry x="662.5" y="575" width="190" height="40" as="geometry" />
        </mxCell>
        <mxCell id="qHxnZsuGqMzURwHlTCag-56" value="&lt;font style=&quot;font-size: 20px;&quot;&gt;172.16.2.32/27&lt;/font&gt;" style="ellipse;shape=cloud;whiteSpace=wrap;html=1;" vertex="1" parent="1">
          <mxGeometry x="667.5" y="981" width="180" height="60" as="geometry" />
        </mxCell>
        <mxCell id="qHxnZsuGqMzURwHlTCag-57" value="" style="verticalLabelPosition=bottom;sketch=0;aspect=fixed;html=1;verticalAlign=top;strokeColor=none;align=center;outlineConnect=0;shape=mxgraph.citrix.switch;" vertex="1" parent="1">
          <mxGeometry x="706.5" y="180" width="92" height="41.5" as="geometry" />
        </mxCell>
        <mxCell id="qHxnZsuGqMzURwHlTCag-58" value="" style="verticalLabelPosition=bottom;sketch=0;aspect=fixed;html=1;verticalAlign=top;strokeColor=none;align=center;outlineConnect=0;shape=mxgraph.citrix.switch;" vertex="1" parent="1">
          <mxGeometry x="1310" y="760" width="92" height="41.5" as="geometry" />
        </mxCell>
      </root>
    </mxGraphModel>
  </diagram>
</mxfile>
